# MagicaVoxel @ Ephtracy

# group
o 

# material
mtllib Coin.mtl
usemtl palette

# normals
vn -1 0 0
vn 1 0 0
vn 0 0 1
vn 0 0 -1
vn 0 -1 0
vn 0 1 0

# texcoords
vt 0.00585938 0.5
vt 0.00976562 0.5
vt 0.0175781 0.5

# verts
v -2 3.2 -1.9
v -2 3.2 -2
v -2 3.7 -1.9
v -2 3.7 -2
v -1.9 3.1 -1.9
v -1.9 3.1 -2
v -1.9 3.2 -1.9
v -1.9 3.2 -2
v -1.9 3.7 -1.9
v -1.9 3.7 -2
v -1.9 3.8 -1.9
v -1.9 3.8 -2
v -1.8 3 -1.9
v -1.8 3 -2
v -1.8 3.1 -1.9
v -1.8 3.1 -2
v -1.8 3.8 -1.9
v -1.8 3.8 -2
v -1.8 3.9 -1.9
v -1.8 3.9 -2
v -1.7 2.9 -1.9
v -1.7 2.9 -2
v -1.7 3 -1.9
v -1.7 3 -2
v -1.7 3.9 -1.9
v -1.7 3.9 -2
v -1.7 4 -1.9
v -1.7 4 -2
v -1.2 2.9 -1.9
v -1.2 2.9 -2
v -1.2 3 -1.9
v -1.2 3 -2
v -1.2 3.9 -1.9
v -1.2 3.9 -2
v -1.2 4 -1.9
v -1.2 4 -2
v -1.1 3 -1.9
v -1.1 3 -2
v -1.1 3.1 -1.9
v -1.1 3.1 -2
v -1.1 3.8 -1.9
v -1.1 3.8 -2
v -1.1 3.9 -1.9
v -1.1 3.9 -2
v -1 3.1 -1.9
v -1 3.1 -2
v -1 3.2 -1.9
v -1 3.2 -2
v -1 3.7 -1.9
v -1 3.7 -2
v -1 3.8 -1.9
v -1 3.8 -2
v -0.9 3.2 -1.9
v -0.9 3.2 -2
v -0.9 3.7 -1.9
v -0.9 3.7 -2
v -2 3.2 -1.9
v -2 3.7 -1.9
v -1.9 3.1 -1.9
v -1.9 3.2 -1.9
v -1.9 3.7 -1.9
v -1.9 3.8 -1.9
v -1.8 3 -1.9
v -1.8 3.1 -1.9
v -1.8 3.2 -1.9
v -1.8 3.7 -1.9
v -1.8 3.8 -1.9
v -1.8 3.9 -1.9
v -1.7 2.9 -1.9
v -1.7 3 -1.9
v -1.7 3.1 -1.9
v -1.7 3.2 -1.9
v -1.7 3.7 -1.9
v -1.7 3.8 -1.9
v -1.7 3.9 -1.9
v -1.7 4 -1.9
v -1.6 3.1 -1.9
v -1.6 3.2 -1.9
v -1.6 3.7 -1.9
v -1.6 3.8 -1.9
v -1.4 3.4 -1.9
v -1.4 3.5 -1.9
v -1.3 3.1 -1.9
v -1.3 3.2 -1.9
v -1.3 3.4 -1.9
v -1.3 3.7 -1.9
v -1.3 3.8 -1.9
v -1.2 2.9 -1.9
v -1.2 3 -1.9
v -1.2 3.1 -1.9
v -1.2 3.2 -1.9
v -1.2 3.5 -1.9
v -1.2 3.8 -1.9
v -1.2 3.9 -1.9
v -1.2 4 -1.9
v -1.1 3 -1.9
v -1.1 3.1 -1.9
v -1.1 3.2 -1.9
v -1.1 3.7 -1.9
v -1.1 3.8 -1.9
v -1.1 3.9 -1.9
v -1 3.1 -1.9
v -1 3.2 -1.9
v -1 3.7 -1.9
v -1 3.8 -1.9
v -0.9 3.2 -1.9
v -0.9 3.7 -1.9
v -2 3.2 -2
v -2 3.7 -2
v -1.9 3.1 -2
v -1.9 3.2 -2
v -1.9 3.7 -2
v -1.9 3.8 -2
v -1.8 3 -2
v -1.8 3.1 -2
v -1.8 3.2 -2
v -1.8 3.7 -2
v -1.8 3.8 -2
v -1.8 3.9 -2
v -1.7 2.9 -2
v -1.7 3 -2
v -1.7 3.1 -2
v -1.7 3.2 -2
v -1.7 3.7 -2
v -1.7 3.8 -2
v -1.7 3.9 -2
v -1.7 4 -2
v -1.6 3.1 -2
v -1.6 3.2 -2
v -1.6 3.7 -2
v -1.6 3.8 -2
v -1.4 3.4 -2
v -1.4 3.5 -2
v -1.3 3.1 -2
v -1.3 3.2 -2
v -1.3 3.4 -2
v -1.3 3.7 -2
v -1.3 3.8 -2
v -1.2 2.9 -2
v -1.2 3 -2
v -1.2 3.1 -2
v -1.2 3.2 -2
v -1.2 3.5 -2
v -1.2 3.8 -2
v -1.2 3.9 -2
v -1.2 4 -2
v -1.1 3 -2
v -1.1 3.1 -2
v -1.1 3.2 -2
v -1.1 3.7 -2
v -1.1 3.8 -2
v -1.1 3.9 -2
v -1 3.1 -2
v -1 3.2 -2
v -1 3.7 -2
v -1 3.8 -2
v -0.9 3.2 -2
v -0.9 3.7 -2
v -1.7 2.9 -1.9
v -1.2 2.9 -1.9
v -1.7 2.9 -2
v -1.2 2.9 -2
v -1.8 3 -1.9
v -1.7 3 -1.9
v -1.2 3 -1.9
v -1.1 3 -1.9
v -1.8 3 -2
v -1.7 3 -2
v -1.2 3 -2
v -1.1 3 -2
v -1.9 3.1 -1.9
v -1.8 3.1 -1.9
v -1.1 3.1 -1.9
v -1 3.1 -1.9
v -1.9 3.1 -2
v -1.8 3.1 -2
v -1.1 3.1 -2
v -1 3.1 -2
v -2 3.2 -1.9
v -1.9 3.2 -1.9
v -1 3.2 -1.9
v -0.9 3.2 -1.9
v -2 3.2 -2
v -1.9 3.2 -2
v -1 3.2 -2
v -0.9 3.2 -2
v -2 3.7 -1.9
v -1.9 3.7 -1.9
v -1 3.7 -1.9
v -0.9 3.7 -1.9
v -2 3.7 -2
v -1.9 3.7 -2
v -1 3.7 -2
v -0.9 3.7 -2
v -1.9 3.8 -1.9
v -1.8 3.8 -1.9
v -1.1 3.8 -1.9
v -1 3.8 -1.9
v -1.9 3.8 -2
v -1.8 3.8 -2
v -1.1 3.8 -2
v -1 3.8 -2
v -1.8 3.9 -1.9
v -1.7 3.9 -1.9
v -1.2 3.9 -1.9
v -1.1 3.9 -1.9
v -1.8 3.9 -2
v -1.7 3.9 -2
v -1.2 3.9 -2
v -1.1 3.9 -2
v -1.7 4 -1.9
v -1.2 4 -1.9
v -1.7 4 -2
v -1.2 4 -2

# faces
f 3/2/1 2/2/1 1/2/1
f 4/2/1 2/2/1 3/2/1
f 7/2/1 6/2/1 5/2/1
f 8/2/1 6/2/1 7/2/1
f 11/2/1 10/2/1 9/2/1
f 12/2/1 10/2/1 11/2/1
f 15/2/1 14/2/1 13/2/1
f 16/2/1 14/2/1 15/2/1
f 19/2/1 18/2/1 17/2/1
f 20/2/1 18/2/1 19/2/1
f 23/2/1 22/2/1 21/2/1
f 24/2/1 22/2/1 23/2/1
f 27/2/1 26/2/1 25/2/1
f 28/2/1 26/2/1 27/2/1
f 29/2/2 30/2/2 31/2/2
f 31/2/2 30/2/2 32/2/2
f 33/2/2 34/2/2 35/2/2
f 35/2/2 34/2/2 36/2/2
f 37/2/2 38/2/2 39/2/2
f 39/2/2 38/2/2 40/2/2
f 41/2/2 42/2/2 43/2/2
f 43/2/2 42/2/2 44/2/2
f 45/2/2 46/2/2 47/2/2
f 47/2/2 46/2/2 48/2/2
f 49/2/2 50/2/2 51/2/2
f 51/2/2 50/2/2 52/2/2
f 53/2/2 54/2/2 55/2/2
f 55/2/2 54/2/2 56/2/2
f 60/2/3 58/2/3 57/2/3
f 61/2/3 58/2/3 60/2/3
f 64/2/3 60/2/3 59/2/3
f 65/3/3 61/3/3 60/3/3
f 65/2/3 60/2/3 64/2/3
f 66/2/3 62/2/3 61/2/3
f 66/3/3 61/3/3 65/3/3
f 67/2/3 62/2/3 66/2/3
f 70/2/3 64/2/3 63/2/3
f 71/3/3 65/3/3 64/3/3
f 71/3/3 66/3/3 65/3/3
f 71/2/3 64/2/3 70/2/3
f 71/3/3 67/3/3 66/3/3
f 72/3/3 67/3/3 71/3/3
f 73/3/3 67/3/3 72/3/3
f 74/2/3 68/2/3 67/2/3
f 74/3/3 67/3/3 73/3/3
f 75/2/3 68/2/3 74/2/3
f 77/3/3 71/3/3 70/3/3
f 77/3/3 72/3/3 71/3/3
f 78/1/3 73/1/3 72/1/3
f 78/3/3 72/3/3 77/3/3
f 79/3/3 75/3/3 74/3/3
f 79/1/3 73/1/3 78/1/3
f 79/3/3 74/3/3 73/3/3
f 80/3/3 75/3/3 79/3/3
f 81/3/3 79/3/3 78/3/3
f 82/3/3 79/3/3 81/3/3
f 83/3/3 77/3/3 70/3/3
f 83/1/3 78/1/3 77/1/3
f 84/3/3 81/3/3 78/3/3
f 84/1/3 78/1/3 83/1/3
f 85/1/3 82/1/3 81/1/3
f 85/3/3 81/3/3 84/3/3
f 86/3/3 79/3/3 82/3/3
f 86/1/3 80/1/3 79/1/3
f 87/3/3 75/3/3 80/3/3
f 87/1/3 80/1/3 86/1/3
f 88/2/3 70/2/3 69/2/3
f 89/3/3 84/3/3 83/3/3
f 89/2/3 70/2/3 88/2/3
f 89/3/3 83/3/3 70/3/3
f 90/3/3 84/3/3 89/3/3
f 91/1/3 85/1/3 84/1/3
f 91/3/3 84/3/3 90/3/3
f 92/1/3 82/1/3 85/1/3
f 92/1/3 85/1/3 91/1/3
f 92/3/3 86/3/3 82/3/3
f 92/3/3 87/3/3 86/3/3
f 93/3/3 75/3/3 87/3/3
f 93/3/3 87/3/3 92/3/3
f 94/2/3 76/2/3 75/2/3
f 94/3/3 75/3/3 93/3/3
f 95/2/3 76/2/3 94/2/3
f 96/2/3 90/2/3 89/2/3
f 97/3/3 92/3/3 91/3/3
f 97/2/3 90/2/3 96/2/3
f 97/3/3 91/3/3 90/3/3
f 97/3/3 93/3/3 92/3/3
f 98/3/3 93/3/3 97/3/3
f 99/3/3 93/3/3 98/3/3
f 100/2/3 94/2/3 93/2/3
f 100/3/3 93/3/3 99/3/3
f 101/2/3 94/2/3 100/2/3
f 102/2/3 98/2/3 97/2/3
f 103/3/3 99/3/3 98/3/3
f 103/2/3 98/2/3 102/2/3
f 104/2/3 100/2/3 99/2/3
f 104/3/3 99/3/3 103/3/3
f 105/2/3 100/2/3 104/2/3
f 106/2/3 104/2/3 103/2/3
f 107/2/3 104/2/3 106/2/3
f 108/2/4 109/2/4 111/2/4
f 111/2/4 109/2/4 112/2/4
f 110/2/4 111/2/4 115/2/4
f 111/3/4 112/3/4 116/3/4
f 115/2/4 111/2/4 116/2/4
f 112/2/4 113/2/4 117/2/4
f 116/3/4 112/3/4 117/3/4
f 117/2/4 113/2/4 118/2/4
f 114/2/4 115/2/4 121/2/4
f 115/3/4 116/3/4 122/3/4
f 116/3/4 117/3/4 122/3/4
f 121/2/4 115/2/4 122/2/4
f 117/3/4 118/3/4 122/3/4
f 122/3/4 118/3/4 123/3/4
f 123/3/4 118/3/4 124/3/4
f 118/2/4 119/2/4 125/2/4
f 124/3/4 118/3/4 125/3/4
f 125/2/4 119/2/4 126/2/4
f 121/3/4 122/3/4 128/3/4
f 122/3/4 123/3/4 128/3/4
f 123/1/4 124/1/4 129/1/4
f 128/3/4 123/3/4 129/3/4
f 125/3/4 126/3/4 130/3/4
f 129/1/4 124/1/4 130/1/4
f 124/3/4 125/3/4 130/3/4
f 130/3/4 126/3/4 131/3/4
f 129/3/4 130/3/4 132/3/4
f 132/3/4 130/3/4 133/3/4
f 121/3/4 128/3/4 134/3/4
f 128/1/4 129/1/4 134/1/4
f 129/3/4 132/3/4 135/3/4
f 134/1/4 129/1/4 135/1/4
f 132/1/4 133/1/4 136/1/4
f 135/3/4 132/3/4 136/3/4
f 133/3/4 130/3/4 137/3/4
f 130/1/4 131/1/4 137/1/4
f 131/3/4 126/3/4 138/3/4
f 137/1/4 131/1/4 138/1/4
f 120/2/4 121/2/4 139/2/4
f 134/3/4 135/3/4 140/3/4
f 139/2/4 121/2/4 140/2/4
f 121/3/4 134/3/4 140/3/4
f 140/3/4 135/3/4 141/3/4
f 135/1/4 136/1/4 142/1/4
f 141/3/4 135/3/4 142/3/4
f 136/1/4 133/1/4 143/1/4
f 142/1/4 136/1/4 143/1/4
f 133/3/4 137/3/4 143/3/4
f 137/3/4 138/3/4 143/3/4
f 138/3/4 126/3/4 144/3/4
f 143/3/4 138/3/4 144/3/4
f 126/2/4 127/2/4 145/2/4
f 144/3/4 126/3/4 145/3/4
f 145/2/4 127/2/4 146/2/4
f 140/2/4 141/2/4 147/2/4
f 142/3/4 143/3/4 148/3/4
f 147/2/4 141/2/4 148/2/4
f 141/3/4 142/3/4 148/3/4
f 143/3/4 144/3/4 148/3/4
f 148/3/4 144/3/4 149/3/4
f 149/3/4 144/3/4 150/3/4
f 144/2/4 145/2/4 151/2/4
f 150/3/4 144/3/4 151/3/4
f 151/2/4 145/2/4 152/2/4
f 148/2/4 149/2/4 153/2/4
f 149/3/4 150/3/4 154/3/4
f 153/2/4 149/2/4 154/2/4
f 150/2/4 151/2/4 155/2/4
f 154/3/4 150/3/4 155/3/4
f 155/2/4 151/2/4 156/2/4
f 154/2/4 155/2/4 157/2/4
f 157/2/4 155/2/4 158/2/4
f 161/2/5 160/2/5 159/2/5
f 162/2/5 160/2/5 161/2/5
f 167/2/5 164/2/5 163/2/5
f 168/2/5 164/2/5 167/2/5
f 169/2/5 166/2/5 165/2/5
f 170/2/5 166/2/5 169/2/5
f 175/2/5 172/2/5 171/2/5
f 176/2/5 172/2/5 175/2/5
f 177/2/5 174/2/5 173/2/5
f 178/2/5 174/2/5 177/2/5
f 183/2/5 180/2/5 179/2/5
f 184/2/5 180/2/5 183/2/5
f 185/2/5 182/2/5 181/2/5
f 186/2/5 182/2/5 185/2/5
f 187/2/6 188/2/6 191/2/6
f 191/2/6 188/2/6 192/2/6
f 189/2/6 190/2/6 193/2/6
f 193/2/6 190/2/6 194/2/6
f 195/2/6 196/2/6 199/2/6
f 199/2/6 196/2/6 200/2/6
f 197/2/6 198/2/6 201/2/6
f 201/2/6 198/2/6 202/2/6
f 203/2/6 204/2/6 207/2/6
f 207/2/6 204/2/6 208/2/6
f 205/2/6 206/2/6 209/2/6
f 209/2/6 206/2/6 210/2/6
f 211/2/6 212/2/6 213/2/6
f 213/2/6 212/2/6 214/2/6
